<?xml version="1.0" standalone="no"?>
<!DOCTYPE svg PUBLIC "-//W3C//DTD SVG 20010904//EN"
 "http://www.w3.org/TR/2001/REC-SVG-20010904/DTD/svg10.dtd">
<svg version="1.0" xmlns="http://www.w3.org/2000/svg"
 width="512.000000pt" height="512.000000pt" viewBox="0 0 512.000000 512.000000"
 preserveAspectRatio="xMidYMid meet">
<metadata>
Created by potrace 1.14, written by Peter Selinger 2001-2017
</metadata>
<g transform="translate(0.000000,512.000000) scale(0.100000,-0.100000)"
fill="#000000" stroke="none">
<path d="M755 4949 c-154 -23 -271 -83 -390 -203 -98 -99 -147 -181 -182 -306
-17 -62 -18 -155 -18 -1885 0 -2040 -6 -1864 73 -2023 53 -107 58 -110 140
-89 123 32 173 97 192 247 6 49 10 320 10 652 l0 568 198 -2 197 -3 3 -530 c3
-594 -5 -751 -43 -872 -42 -134 -119 -234 -224 -292 l-54 -29 44 -14 c36 -11
375 -13 1864 -13 2043 0 1867 -7 2030 75 152 76 273 213 337 380 l33 85 3
1328 2 1327 -998 0 c-955 0 -1000 1 -1015 18 -25 27 -22 78 5 96 20 14 133 16
1015 16 l993 0 0 145 0 145 -1222 2 -1222 3 -16 28 c-13 24 -13 30 0 55 l16
27 1222 3 1222 2 0 155 0 155 -1425 0 -1426 0 -24 25 c-30 29 -32 58 -5 85 20
20 33 20 1451 20 l1430 0 -7 48 c-11 78 -61 203 -110 275 -110 161 -284 268
-480 297 -86 12 -3533 11 -3619 -1z m123 -2513 c36 -19 78 -65 91 -99 15 -39
14 -121 -3 -160 -7 -18 -29 -47 -49 -64 -101 -88 -266 -59 -324 57 -74 144 40
301 205 285 30 -3 66 -12 80 -19z m1244 -50 c77 -15 197 -52 211 -66 7 -6 -66
-305 -77 -317 -1 -1 -29 9 -63 22 -131 53 -316 71 -419 40 -91 -27 -145 -107
-124 -185 18 -68 97 -122 289 -195 122 -46 216 -95 286 -148 73 -56 107 -98
147 -183 25 -54 32 -83 36 -158 5 -109 -7 -177 -50 -264 -65 -132 -201 -230
-386 -279 -82 -21 -119 -25 -247 -26 -82 0 -179 5 -215 12 -77 14 -224 57
-261 77 l-27 13 40 158 c22 87 40 159 41 160 2 1 43 -13 92 -32 172 -64 359
-83 475 -49 137 41 182 176 93 275 -41 45 -111 84 -243 134 -331 126 -470 277
-470 510 0 231 141 405 391 484 87 27 94 28 261 30 90 0 174 -4 220 -13z m823
-1297 c60 -17 119 -82 140 -153 54 -185 -87 -344 -271 -306 -63 13 -129 66
-155 124 -27 60 -25 157 5 222 46 99 162 146 281 113z"/>
</g>
</svg>
